<svg xmlns="http://www.w3.org/2000/svg" version="1.1" xmlns:xlink="http://www.w3.org/1999/xlink" xmlns:svgjs="http://svgjs.dev/svgjs" width="2000" height="1999" viewBox="0 0 2000 1999"><g transform="matrix(1,0,0,1,-0.431486880466764,-0.4312711370263287)"><svg viewBox="0 0 343 343" data-background-color="#ffffff" preserveAspectRatio="xMidYMid meet" height="1999" width="2000" xmlns="http://www.w3.org/2000/svg" xmlns:xlink="http://www.w3.org/1999/xlink"><g id="tight-bounds" transform="matrix(1,0,0,1,0.0740000000000407,0.07400000000001228)"><svg viewBox="0 0 342.85155851775386 342.85155851775386" height="342.85155851775386" width="342.85155851775386"><g><svg></svg></g><g><svg viewBox="0 0 342.85155851775386 342.85155851775386" height="342.85155851775386" width="342.85155851775386"><g><path d="M0 171.426c0-94.676 76.75-171.426 171.426-171.426 94.676 0 171.426 76.75 171.426 171.426 0 94.676-76.75 171.426-171.426 171.426-94.676 0-171.426-76.75-171.426-171.426zM171.426 338.374c92.203 0 166.948-74.745 166.948-166.948 0-92.203-74.745-166.948-166.948-166.948-92.203 0-166.948 74.745-166.948 166.948 0 92.203 74.745 166.948 166.948 166.948z" data-fill-palette-color="tertiary" fill="#000000" stroke="transparent"></path><ellipse rx="164.56874808852186" ry="164.56874808852186" cx="171.42577925887693" cy="171.42577925887693" fill="#000000" stroke="transparent" stroke-width="0" fill-opacity="1" data-fill-palette-color="tertiary"></ellipse></g><g transform="matrix(1,0,0,1,64.84655864529837,106.42553044936747)"><svg viewBox="0 0 213.1584412271571 130.00049761901892" height="130.00049761901892" width="213.1584412271571"><g><svg viewBox="0 0 213.1584412271571 130.00049761901892" height="130.00049761901892" width="213.1584412271571"><g><svg viewBox="0 0 213.1584412271571 130.00049761901892" height="130.00049761901892" width="213.1584412271571"><g transform="matrix(1,0,0,1,0,80.34552288985945)"><svg viewBox="0 0 213.1584412271571 49.65497472915948" height="49.65497472915948" width="213.1584412271571"><g id="textblocktransform"><svg viewBox="0 0 213.1584412271571 49.65497472915948" height="49.65497472915948" width="213.1584412271571" id="textblock"><g><svg viewBox="0 0 213.1584412271571 49.65497472915948" height="49.65497472915948" width="213.1584412271571"><g transform="matrix(1,0,0,1,0,0)"><svg width="213.1584412271571" viewBox="3.8 -37.5 161.54 37.55" height="49.65497472915948" data-palette-color="#ffffff"><path d="M25.7 0L23.85 0 23.95-32.1 15.6-12.95 13.9-12.95 5.55-32.1 5.55 0 3.8 0 3.8-35.05 6.2-35.05 14.75-15.45 23.25-35.05 25.7-35.05 25.7 0ZM50-13.45L50-13.45Q50-10.05 49.35-7.48 48.7-4.9 47.72-3.5 46.75-2.1 45.4-1.25L45.4-1.25Q42 0.95 37.95-0.35L37.95-0.35Q36.55-0.8 35-1.98 33.45-3.15 32.5-5.7 31.55-8.25 31.55-11.95L31.55-11.95Q31.55-17.95 33.95-21.73 36.35-25.5 40.87-25.5 45.4-25.5 47.67-21.95 49.95-18.4 50-13.45ZM40.2-1.75L40.2-1.75 40.8-1.7 41.35-1.75Q48.15-2.4 48.15-13.2L48.15-13.2Q48.15-17.65 46.35-20.65 44.55-23.65 40.6-23.65L40.6-23.65Q38.05-23.65 36.35-21.9L36.35-21.9Q33.4-18.8 33.4-12.25L33.4-12.25 33.4-11.85Q33.4-7.7 35.1-4.88 36.8-2.05 40.2-1.75ZM72.75 0L70.89 0 70.94-13.2Q70.94-17.4 68.92-20.55 66.89-23.7 63.95-23.7L63.95-23.7Q62.05-23.7 60.47-22.58 58.89-21.45 57.2-19.5L57.2-19.5 57.2 0 55.34 0 55.34-37.5 57.2-37.5 57.2-22Q60.49-25.55 64.25-25.55L64.25-25.55Q66.3-25.55 68.39-24L68.39-24Q72.8-20.8 72.8-13.25L72.8-13.25 72.75 0ZM93.59-22L93.59-25 95.44-25 95.44 0.05Q92.44 0.05 90.19-0.2 87.94-0.45 85.52-1.28 83.09-2.1 81.54-3.5 79.99-4.9 78.99-7.38 77.99-9.85 77.99-12.95 77.99-16.05 78.62-18.28 79.24-20.5 80.22-21.83 81.19-23.15 82.39-24L82.39-24Q84.49-25.55 86.54-25.55L86.54-25.55Q90.29-25.55 93.59-22L93.59-22ZM79.84-13.2L79.84-13.2Q79.84-6.65 83.89-4.1L83.89-4.1Q87.49-1.85 93.59-1.85L93.59-1.85 93.59-19.5Q91.89-21.45 90.32-22.58 88.74-23.7 86.84-23.7L86.84-23.7Q83.69-23.7 81.77-20.93 79.84-18.15 79.84-13.2ZM119.84 0L117.99 0 118.04-13.2Q118.04-17.4 116.02-20.53 113.99-23.65 110.97-23.65 107.94-23.65 104.29-19.5L104.29-19.5 104.29 0 102.44 0 102.44-25 104.29-25 104.29-22Q107.54-25.5 111.34-25.5L111.34-25.5Q113.89-25.5 116.64-23.1L116.64-23.1Q118.04-21.8 118.97-19.25 119.89-16.7 119.89-13.25L119.89-13.25 119.84 0ZM140.69-22L140.69-25 142.54-25 142.54 0.05Q139.54 0.05 137.29-0.2 135.04-0.45 132.61-1.28 130.19-2.1 128.64-3.5 127.09-4.9 126.09-7.38 125.09-9.85 125.09-12.95 125.09-16.05 125.71-18.28 126.34-20.5 127.31-21.83 128.29-23.15 129.49-24L129.49-24Q131.59-25.55 133.64-25.55L133.64-25.55Q137.39-25.55 140.69-22L140.69-22ZM126.94-13.2L126.94-13.2Q126.94-6.65 130.99-4.1L130.99-4.1Q134.59-1.85 140.69-1.85L140.69-1.85 140.69-19.5Q138.99-21.45 137.41-22.58 135.84-23.7 133.94-23.7L133.94-23.7Q130.79-23.7 128.86-20.93 126.94-18.15 126.94-13.2ZM163.49-22L163.49-37.5 165.34-37.5 165.34 0.05Q162.34 0.05 160.09-0.2 157.84-0.45 155.41-1.28 152.99-2.1 151.44-3.5 149.89-4.9 148.89-7.38 147.89-9.85 147.89-12.95 147.89-16.05 148.51-18.28 149.14-20.5 150.11-21.83 151.09-23.15 152.28-24L152.28-24Q154.39-25.55 156.44-25.55L156.44-25.55Q160.19-25.55 163.49-22L163.49-22ZM156.74-23.7Q153.78-23.7 151.76-20.55 149.74-17.4 149.74-13.68 149.74-9.95 150.78-7.65 151.84-5.35 153.78-4.1L153.78-4.1Q157.39-1.85 163.49-1.85L163.49-1.85 163.49-19.5Q161.78-21.45 160.21-22.58 158.64-23.7 156.74-23.7L156.74-23.7Z" opacity="1" transform="matrix(1,0,0,1,0,0)" fill="#ffffff" class="wordmark-text-0" data-fill-palette-color="quaternary" id="text-0"></path></svg></g></svg></g></svg></g></svg></g><g transform="matrix(1,0,0,1,67.20886010841946,0)"><svg viewBox="0 0 78.74072101031821 68.6231750756984" height="68.6231750756984" width="78.74072101031821"><g><svg xmlns="http://www.w3.org/2000/svg" xmlns:xlink="http://www.w3.org/1999/xlink" version="1.0" x="0" y="0" viewBox="1.118 4.1185758 47.921 41.76353899999999" enable-background="new 0 0 50 50" xml:space="preserve" height="68.6231750756984" width="78.74072101031821" class="icon-icon-0" data-fill-palette-color="quaternary" id="icon-0"><g fill="#ffffff" data-fill-palette-color="quaternary"><g fill="#ffffff" data-fill-palette-color="quaternary"><polygon fill="#ffffff" points="10.821,24.951 21,32.193 21,39.035 1.118,24.891 21,11.118 21,17.9   " data-fill-palette-color="quaternary"></polygon></g><g fill="#ffffff" data-fill-palette-color="quaternary"><polygon fill="#ffffff" points="49.039,25.277 35.815,16.063 34.219,21.712 39.475,25.338 31.411,30.97 29,38.79 29,39.424   " data-fill-palette-color="quaternary"></polygon></g><rect x="25.577" y="3.983" transform="matrix(0.9606 0.278 -0.278 0.9606 8.0575 -6.8179)" fill="#ffffff" width="4.981" height="42.035" data-fill-palette-color="quaternary"></rect></g></svg></g></svg></g><g></g></svg></g></svg></g></svg></g></svg></g><defs></defs></svg><rect width="342.85155851775386" height="342.85155851775386" fill="none" stroke="none" visibility="hidden"></rect></g></svg></g></svg>